<svg xmlns="http://www.w3.org/2000/svg" xmlns:xlink="http://www.w3.org/1999/xlink" width="841.414" height="581.678" viewBox="0 0 841.414 581.678">
  <defs>
    <linearGradient id="linear-gradient" x1="28.854" y1="107.889" x2="29.854" y2="107.889" gradientUnits="objectBoundingBox">
      <stop offset="0" stop-color="#f71d69"/>
      <stop offset="1" stop-color="#f8c648"/>
    </linearGradient>
    <linearGradient id="linear-gradient-2" x1="9.527" y1="36.334" x2="10.527" y2="36.334" gradientUnits="objectBoundingBox">
      <stop offset="0" stop-color="#e5a4ed"/>
      <stop offset="1" stop-color="#7a5bf5"/>
    </linearGradient>
    <linearGradient id="linear-gradient-3" x1="30.602" y1="57.417" x2="31.602" y2="57.417" xlink:href="#linear-gradient-2"/>
    <linearGradient id="linear-gradient-5" x1="30.51" y1="57.396" x2="31.507" y2="57.396" xlink:href="#linear-gradient-2"/>
    <linearGradient id="linear-gradient-6" x1="4.377" y1="5.854" x2="5.376" y2="5.854" xlink:href="#linear-gradient-2"/>
    <linearGradient id="linear-gradient-7" x1="3.118" y1="5.689" x2="4.119" y2="5.689" gradientUnits="objectBoundingBox">
      <stop offset="0" stop-color="#f87b58"/>
      <stop offset="0.41" stop-color="#f89453"/>
      <stop offset="0.71" stop-color="#f8c548"/>
      <stop offset="1" stop-color="#f89c51"/>
    </linearGradient>
    <linearGradient id="linear-gradient-8" x1="2.808" y1="8.093" x2="3.809" y2="8.093" xlink:href="#linear-gradient-2"/>
    <linearGradient id="linear-gradient-9" x1="0.001" y1="10.829" x2="1.003" y2="10.829" xlink:href="#linear-gradient-2"/>
  </defs>
  <g id="freelance" transform="translate(6.108 0.075)">
    <g id="bg" transform="translate(-6.108 -0.075)">
      <path id="Path_1" data-name="Path 1" d="M25.93,260.578a104.779,104.779,0,0,1-9.855-74.595C33.39,114.606,82.39-10.7,212.074,7.025c179.985,24.637,232.338,30.8,306.18,7.665S719.8-8.373,759.762,43.912c24.226,31.686,106.143,173.826,53.859,223.1s25.321,146.725,27.716,198.462-72.268,58.444-166.161,60.018S35.854,509.135,35.854,509.135-34.087,388.552,21.345,345.506C55.631,318.817,40.233,286.926,25.93,260.578Z" transform="translate(0.021 0.075)" fill="#cfcffa"/>
      <path id="Path_2" data-name="Path 2" d="M89.446,659.03c-11.976-.411-56.938,5.749-59.607,8.075-.684.616-10.539,29.906,32.781,67.682,69.257,60.5,255.538,62.55,315.9,39.556,87.6-33.4,183.612,29.222,382.553,5.27,63.576-7.665,106.075-105.048,77.2-117.709-17.314-7.528-38.05,12.455-55.433,3.7-20.052-10.128-60.634-16.424-85.75-8.691a1.97,1.97,0,0,0-1.369,2.4,1.938,1.938,0,0,0,2.258,1.369l-13.208,4.243c-14.714,10.95-11.429-3.627-45.92-5.475L537.15,656.908c-36.339,1.095-176.289,7.254-231.038,5.064H276c-20.12-2.532-72.2-3.7-74.115-3.764Z" transform="translate(-8.952 -206.211)" fill="#cfcffa"/>
    </g>
    <g id="chair" transform="translate(105.905 303.761)">
      <path id="Path_3" data-name="Path 3" d="M164.1,465.9" transform="translate(-163.796 -450.844)" fill="#7c75f9"/>
      <path id="Path_4" data-name="Path 4" d="M178.1,443.9h30.8s9.581,1.369,10.265,8.212-.205,95.878-.205,95.878l61.8-.753a9.464,9.464,0,0,1,6.159,8.9,11.017,11.017,0,0,1-4.79,9.581l-93.893-.411L178.1,443.9" transform="translate(-168.215 -443.9)" fill="#7c75f9"/>
      <path id="Path_5" data-name="Path 5" d="M173.541,443.9s-8.9,1.369-9.581,15.056,0,106.075,0,106.075l93.825.684a4.669,4.669,0,0,0,3.559-1.574c1.369-1.506,3.216-3.832,3.216-5.954,0-3.7-1.369-9.581-8.9-9.581s-71.173-.684-71.173-.684l-1.369-95.81C183.122,452.181,183.122,445.269,173.541,443.9Z" transform="translate(-163.656 -443.9)" fill="#7c75f9"/>
      <path id="Path_6" data-name="Path 6" d="M235.393,620.968s-1.642,7.733,3.832,7.733h8.9c.684,0,3.627-4.106,1.779-7.528s-14.508-.205-14.508-.205" transform="translate(-186.226 -499.358)" fill="#7c75f9"/>
      <path id="Path_7" data-name="Path 7" d="M241.1,632.779l.684,77.263h6.159l.342-77.743Z" transform="translate(-188.101 -503.368)" fill="#e9edfa"/>
      <path id="Path_8" data-name="Path 8" d="M204.1,743.9l58.854.684v5.475l-58.854-.684Z" transform="translate(-176.422 -538.594)" fill="#e9edfa"/>
    </g>
    <g id="table" transform="translate(215.021 335.241)">
      <path id="Path_9" data-name="Path 9" d="M372.837,687.93,370.1,544.9h14.371l-.684,143.03Z" transform="translate(-337.935 -507.261)" fill="#fff"/>
      <path id="Path_10" data-name="Path 10" d="M831.1,545.9h15.74l-5.475,143.03-10.265.684Z" transform="translate(-483.449 -507.576)" fill="#fff"/>
      <path id="Path_11" data-name="Path 11" d="M354.1,508.584l.684,23.268,348.336,2.053.411-26.005Z" transform="translate(-332.885 -495.582)" fill="#e9edfa"/>
      <path id="Path_12" data-name="Path 12" d="M323.1,489.9l391.45,1.369v13l-390.766-.684Z" transform="translate(-323.1 -489.9)" fill="#7c75f9"/>
    </g>
    <g id="flower" transform="translate(658.599 291.389)">
      <path id="Path_13" data-name="Path 13" d="M1022.8,667.7l.684,58.17L1101.5,724.5V667.7Z" transform="translate(-987.536 -502.17)" fill="#e9edfa"/>
      <path id="Path_14" data-name="Path 14" d="M1110.527,724.775l.068-57.075h-5" transform="translate(-1013.671 -502.17)" fill="#fff"/>
      <path id="Path_15" data-name="Path 15" d="M1052.371,591.215s-1.848-34.491,14.44-44.278,2.327-32.644,5.612-44.757,18.614-21.01,18.614-30.317-1.369-35.449,16.288-43.32,31.686,2.327,26.142,17.725-9.786,33.123-15.877,38.666-3.7,14.44-2.806,25.184-7.459,28.4-12.113,34.97,0,17.725-1.369,29.359c0,0-2.532,16.288-5.133,16.835S1052.371,591.215,1052.371,591.215Z" transform="translate(-996.85 -425.822)" fill="#7c75f9"/>
      <path id="Path_16" data-name="Path 16" d="M1063.2,632.83s2.053-16.424-16.151-21.078-2.6-15.535-6.228-21.283-20.8-9.992-20.8-14.371,1.574-16.835-18.2-20.6-35.381,1.095-29.153,8.418,10.95,15.74,17.656,18.409,4.174,6.844,3.148,11.976,8.349,13.55,13.55,16.63,0,8.418,1.574,13.961c0,0,2.874,7.733,5.68,8.007S1063.2,632.83,1063.2,632.83Z" transform="translate(-971.271 -466.342)" fill="#8a83ff"/>
      <path id="Path_17" data-name="Path 17" d="M1083.377,631.056s-1.437-17.177,11.223-22.036,1.848-16.219,4.311-22.242,14.508-10.4,14.508-15.056-1.095-17.588,12.661-21.557,24.637,1.163,20.257,8.828-7.6,16.424-12.318,19.23-2.874,7.186-2.19,12.524-5.817,14.166-9.444,17.383,0,8.828-1.095,14.577c0,0-1.985,8.075-3.969,8.349S1083.377,631.056,1083.377,631.056Z" transform="translate(-1006.641 -464.636)" fill="#91a4e9"/>
    </g>
    <g id="board" transform="translate(135.773 127.061)">
      <path id="Path_18" data-name="Path 18" d="M441.9,185.7l.479,131.259,365.1-.547V186.727Z" transform="translate(-281.351 -185.7)" fill="#fff"/>
      <path id="Path_19" data-name="Path 19" d="M537.3,245.7v16.151l149.531-.684V245.7Z" transform="translate(-311.463 -204.639)" fill="#7c75f9"/>
      <path id="Path_20" data-name="Path 20" d="M537.3,311.4v16.151l149.531-.684V311.4Z" transform="translate(-311.463 -225.377)" fill="#7c75f9"/>
      <circle id="Ellipse_1" data-name="Ellipse 1" cx="11.223" cy="11.223" r="11.223" transform="translate(189.361 40.377)" fill="#7c75f9"/>
      <circle id="Ellipse_2" data-name="Ellipse 2" cx="11.223" cy="11.223" r="11.223" transform="translate(189.361 82.328)" fill="#7c75f9"/>
      <path id="Path_68" data-name="Path 68" d="M0,0H88.761V43.32H0Z" transform="translate(416.224 58.718)" fill="#cfcffa"/>
      <path id="Path_21" data-name="Path 21" d="M813.4,315.008s6.912-15.124,13.482-13.482,8.212,8.554,13.14,5.612,8.144-14.85,12.934-16.767c6.844-2.669,9.1.274,18.341,5.543s13.14,4.106,16.9.205c3.49-3.559,9.923-13.208,17.04-17.519" transform="translate(-398.613 -215.024)" fill="none" stroke="#7c75f9" stroke-linecap="round" stroke-linejoin="round" stroke-width="3"/>
      <rect id="Rectangle_4" data-name="Rectangle 4" width="132.08" height="125.579" transform="translate(0 1.711)" fill="#fff"/>
      <circle id="Ellipse_3" data-name="Ellipse 3" cx="34.149" cy="34.149" r="34.149" transform="translate(30.18 43.593)" stroke-width="6" stroke="#7c75f9" stroke-linecap="round" stroke-linejoin="round" fill="none"/>
      <rect id="Rectangle_5" data-name="Rectangle 5" width="33.602" height="7.938" transform="translate(8.691 12.592)" fill="#7c75f9"/>
      <rect id="Rectangle_6" data-name="Rectangle 6" width="33.602" height="7.938" transform="translate(8.691 25.047)" fill="#7c75f9"/>
    </g>
    <g id="Computer" transform="translate(238.495 227.25)">
      <path id="Path_22" data-name="Path 22" d="M361.606,453.787H465.833s3.9-.205,3.9-4.722V440.1H357.5v10.881a4.1,4.1,0,0,0,4.106,2.806" transform="translate(-357.432 -366.19)" fill="#7c75f9"/>
      <path id="Path_23" data-name="Path 23" d="M357.468,338.259l-.068,71.173,112.3-1.027v-72.2a3.422,3.422,0,0,0-3.7-4.106h-104.3s-4.722,0-4.243,6.159" transform="translate(-357.4 -332.1)" fill="#7c75f9"/>
      <path id="Path_24" data-name="Path 24" d="M426.5,478.878V459.1l16.424.684v17.383Z" transform="translate(-379.211 -372.187)" fill="#7c75f9"/>
      <path id="Path_25" data-name="Path 25" d="M388.4,485.1h68.23l.068,3.422H388.4Z" transform="translate(-367.185 -380.394)" fill="#7c75f9"/>
      <path id="Path_26" data-name="Path 26" d="M436.485,447.2a3.285,3.285,0,1,1-3.285,3.285,3.286,3.286,0,0,1,3.285-3.285h0" transform="translate(-381.326 -368.431)" fill="#fff"/>
      <rect id="Rectangle_7" data-name="Rectangle 7" width="105.39" height="69.12" transform="translate(3.49 3.422)" fill="#f8f8ff"/>
      <path id="Path_27" data-name="Path 27" d="M369.442,342.3a1.642,1.642,0,1,1-1.642,1.642,1.665,1.665,0,0,1,1.642-1.642h0" transform="translate(-360.683 -335.32)" fill="#fa5f5d"/>
      <path id="Path_28" data-name="Path 28" d="M377.642,342.3A1.642,1.642,0,1,1,376,343.942a1.665,1.665,0,0,1,1.642-1.642h0" transform="translate(-363.271 -335.32)" fill="#fdbc4e"/>
      <path id="Path_29" data-name="Path 29" d="M386.242,342.3a1.642,1.642,0,1,1-1.642,1.642,1.665,1.665,0,0,1,1.642-1.642h0" transform="translate(-365.986 -335.32)" fill="#37cd58"/>
      <path id="Path_30" data-name="Path 30" d="M409.452,357.751a1.609,1.609,0,0,1-1.711,1.506H387.553c-1.027,0-2.053-.684-2.053-1.506v-3.08c0-.821.958-1.574,2.053-1.574h20.12a1.672,1.672,0,0,1,1.779,1.506v3.148Z" transform="translate(-366.27 -338.726)" fill="url(#linear-gradient)"/>
      <path id="Path_31" data-name="Path 31" d="M458.041,381.933a1.755,1.755,0,0,1-1.848,1.642H387.553a1.969,1.969,0,0,1-2.053-1.642V366.74a1.969,1.969,0,0,1,2.053-1.642h68.641a1.755,1.755,0,0,1,1.848,1.642h0Z" transform="translate(-366.27 -342.514)" fill="url(#linear-gradient-2)"/>
      <path id="Path_32" data-name="Path 32" d="M408.084,404.089a1.665,1.665,0,0,1-1.642,1.642H387.553a1.921,1.921,0,0,1-2.053-1.642V395.74a1.969,1.969,0,0,1,2.053-1.642H406.3a1.679,1.679,0,0,1,1.779,1.574h0v8.418Z" transform="translate(-366.27 -351.668)" fill="url(#linear-gradient-3)"/>
      <path id="Path_33" data-name="Path 33" d="M444.084,404.089a1.665,1.665,0,0,1-1.642,1.642H423.553a1.921,1.921,0,0,1-2.053-1.642V395.74a1.969,1.969,0,0,1,2.053-1.642H442.3a1.679,1.679,0,0,1,1.779,1.574v8.418Z" transform="translate(-377.633 -351.668)" fill="url(#linear-gradient-3)"/>
      <path id="Path_34" data-name="Path 34" d="M481.084,404.089a1.755,1.755,0,0,1-1.848,1.642H460.485a1.883,1.883,0,0,1-1.985-1.642V395.74a1.794,1.794,0,0,1,1.985-1.642h18.751a1.818,1.818,0,0,1,1.916,1.642h0l-.068,8.349Z" transform="translate(-389.312 -351.668)" fill="url(#linear-gradient-5)"/>
      <path id="Path_35" data-name="Path 35" d="M444.084,415.127a.986.986,0,0,1-.753.616c-.068,0-.068,0-.137-.274H422.527c-.411.274-1.027,0-1.027-.342v-.274c0-.342.616-.684,1.027-.753h20.667a.809.809,0,0,1,.616.616c0,.068,0,.068.205.137l.068.274Z" transform="translate(-377.633 -357.983)" fill="#e9edfb"/>
      <path id="Path_36" data-name="Path 36" d="M444.084,419.058a1.076,1.076,0,0,1-.753.684s-.068,0-.068-.274H422.527c-.411.274-1.027,0-1.027-.411v-.274c0-.342.616-.616,1.027-.684h20.667a1.179,1.179,0,0,1,.821.684l.068.274Z" transform="translate(-377.633 -359.246)" fill="#e9edfb"/>
      <path id="Path_37" data-name="Path 37" d="M444.084,423.058a1.129,1.129,0,0,1-.821.753v-.342H422.527a.673.673,0,0,1-.958-.205.251.251,0,0,1-.068-.205v-.274c0-.342.616-.547,1.027-.684h20.667a1.179,1.179,0,0,1,.821.684Z" transform="translate(-377.633 -360.508)" fill="#e9edfb"/>
      <path id="Path_38" data-name="Path 38" d="M444.084,426.977a4.5,4.5,0,0,1-.821,1.163H422.527c-.411-.342-1.027-.753-1.027-1.163V426.7c0-.342.616-.753,1.027-.616h20.667a.533.533,0,0,1,.616.411v.205l.205.068.068.205Z" transform="translate(-377.633 -361.758)" fill="#e9edfb"/>
      <path id="Path_39" data-name="Path 39" d="M432.587,430.99c0,.342-.205.479-.616.479h-9.513c-.411,0-.958-.137-.958-.479v-.274c0-.342.547-.616.958-.616h9.513a.613.613,0,0,1,.616.616h0Z" transform="translate(-377.633 -363.033)" fill="#e9edfb"/>
      <path id="Path_40" data-name="Path 40" d="M481.3,415.127c-.411.342-.342.616-.753.342H459.884c-.342.274-.684.068-.684-.274l.205-.068v-.274c-.205-.342.068-.684.479-.753h20.667c.411.137.342.411.753.753Z" transform="translate(-389.533 -357.983)" fill="#e9edfb"/>
      <path id="Path_41" data-name="Path 41" d="M481.367,419.058c-.411.342-.342.684-.753.411H459.947c-.411.274-.684,0-.479-.411v-.274c-.205-.342.068-.616.479-.684h20.667c.411.137.342.342.753.684Z" transform="translate(-389.595 -359.246)" fill="#e9edfb"/>
      <path id="Path_42" data-name="Path 42" d="M481.367,423.058c-.411.342-.342.753-.753.411H459.947c-.411.274-.684,0-.479-.411v-.274c-.205-.342.068-.547.479-.684h20.667c.411.137.342.342.753.684Z" transform="translate(-389.595 -360.508)" fill="#e9edfb"/>
      <path id="Path_43" data-name="Path 43" d="M481.352,426.977c-.411.342-.342.821-.753,1.163H459.932c-.411-.411-.684-.753-.479-1.163V426.7a.416.416,0,0,1,0-.547.453.453,0,0,1,.411-.068H480.6c.411-.137.342.274.753.616v.274Z" transform="translate(-389.58 -361.758)" fill="#e9edfb"/>
      <path id="Path_44" data-name="Path 44" d="M470.039,430.99c0,.342,0,.479-.342.479h-9.581c-.411,0-.616-.137-.616-.479v-.274a.613.613,0,0,1,.616-.616h9.512c.411,0,.342.274.342.616Z" transform="translate(-389.628 -363.033)" fill="#e9edfb"/>
      <path id="Path_45" data-name="Path 45" d="M407.4,415.127c.274.342.137.616-.274.342H386.39a.528.528,0,0,1-.753-.068c-.068-.068-.068-.137-.137-.274v-.274a1.116,1.116,0,0,1,.89-.753h20.667c.411.137.547.411.274.753l.068.274Z" transform="translate(-366.27 -357.983)" fill="#e9edfb"/>
      <path id="Path_46" data-name="Path 46" d="M407.4,419.058c.274.342.137.684-.274.411H386.39c-.411.342-.753,0-.89-.411v-.274a1.062,1.062,0,0,1,.89-.684h20.667c.411.137.547.342.274.684l.068.274Z" transform="translate(-366.27 -359.246)" fill="#e9edfb"/>
      <path id="Path_47" data-name="Path 47" d="M407.4,423.058c.274.342.137.753-.274.411H386.39c-.411.342-.753,0-.89-.411v-.274c.068-.342.479-.547.89-.684h20.667c.411.137.547.342.274.684l.068.274Z" transform="translate(-366.27 -360.508)" fill="#e9edfb"/>
      <path id="Path_48" data-name="Path 48" d="M401.24,426.088h5.885c.411-.137.547.274.274.616v.274a.835.835,0,0,1-.274,1.163H386.39a2.537,2.537,0,0,1-.89-1.163V426.7a.773.773,0,0,1,.89-.616h14.85" transform="translate(-366.27 -361.758)" fill="#e9edfb"/>
      <path id="Path_49" data-name="Path 49" d="M397.134,430.99c0,.342-.205.479-.616.479H386.253c-.411,0-.753-.137-.753-.479v-.274a.8.8,0,0,1,.753-.616h10.265a.6.6,0,0,1,.616.547h0v.342Z" transform="translate(-366.27 -363.033)" fill="#e9edfb"/>
    </g>
    <g id="Man" transform="translate(506.615 131.016)">
      <g id="Group_1" data-name="Group 1" transform="translate(0 394.818)">
        <path id="Path_57" data-name="Path 57" d="M874.531,786.4c-1.848-7.8-2.464-17.793-3.7-18h-1.369l-13.071.137s-2.737,12.455-4.106,17.656c-.137.342-.342,1.232-.616,1.848a9.312,9.312,0,0,0-.274,2.737c.274,4.722,2.121,8.76,6.3,10.881,4.722,2.327,8.281,4.585,13.071,0C875.626,797.006,876.379,794.2,874.531,786.4Z" transform="translate(-781.45 -768.4)" fill="#4b44be"/>
        <path id="Path_58" data-name="Path 58" d="M800.864,770.2l-16.561.89s-6.57,11.36-16.151,14.1c-9.033,2.6-23.952,8.9-17.314,12.455,4.927,2.874,36.818.274,44.551.89,5.817.479,7.391-3.08,6.775-10.881C801.754,781.766,800.864,770.2,800.864,770.2Z" transform="translate(-749.186 -768.968)" fill="#4b44be"/>
      </g>
      <path id="Path_59" data-name="Path 59" d="M790.2,468.1s-11.087,91.361-11.839,97.315,3.832,36.408,3.832,42.225S793.075,675.8,793.075,675.8l17.314-.753s-3.49-91.772-3.08-96.22c.342-4.448,19.3-57.691,19.3-57.691s1.369,14.1,1.369,18.546,5.2,134.27,5.2,134.27h15.056l21.352-191.208-.342-3.7Z" transform="translate(-758.369 -278.793)" fill="url(#linear-gradient-6)"/>
      <path id="Path_60" data-name="Path 60" d="M836.226,210.2s-16.561,6.433-20.257,7.87c-3.7,1.506-5.817,6.022-5.817,6.022S808.3,223,808.3,226.077s1.506,10.128,2.737,11.976a106.346,106.346,0,0,1,5.338,9.376c1.505,3.216.958,9.855-.616,10.881-1.574.958-29.5,26.211-29.5,26.211L763,356.036l3.08,22.584,4.722,22.241s-.958,1.574.958,3.49c1.985,1.848,10.4,15.672,10.4,15.672l2.874-20.394-9.513-30.248-3.353-25.458,22.241-45.441,77.058,13.687,8.418,49.547-15.6,42.225-2.737,20.6,13.071-11.5c.753-.616,2.19-3.832,2.943-5.543l7.8-21.968,5.817-35.107s-48.658-87.666-51.121-92.867c-1.095-2.327.137-8.007.753-10.881.616-2.6,1.848-5.954,3.08-6.912a14.713,14.713,0,0,0,3.217-7.391c0-1.848.753-9.033-1.095-7.254-.342.479-1.711-1.711-2.327-4.585C842.522,216.359,839.579,212.869,836.226,210.2Z" transform="translate(-753.547 -197.388)" fill="url(#linear-gradient-7)"/>
      <path id="Path_61" data-name="Path 61" d="M826.2,305.167a3.062,3.062,0,0,1-4.175-.137,31.207,31.207,0,0,1-2.327-4.106c-1.232-2.464-10.744-16.424-10.744-16.424s-22.584,5.817-26.211,8.144c-3.7,2.464-7.049,5.817-8.281,10.128s-18.683,55.09-19.5,58.17c-.89,3.08-5.338,8.007-3.216,20.531s13.824,44.483,15.056,44.825,13.687-5.817,13.687-5.817-9.855-39.761-9.855-43.73,8.9-15.193,12.455-22.857,6.159-14.3,7.391-17.656-10.607,66.109-10.607,66.109-.274,12.592,2.121,13.824c2.19,1.095,28.743,11.223,34.97,13.619a1.431,1.431,0,0,0,1.711-.753h0l3.969-11.223c0-.137.137-.274.274-.137a.134.134,0,0,1,.137.137l3.7,12.25a1.379,1.379,0,0,0,1.506.89l32.712-7.049s-.479-60.36.137-70.488c.479-9.855-.753-15.466,1.095-12.729,1.985,2.943,10.265,30.112,10.265,34.7s-9.239,44.688-9.239,44.688l12.25,6.775s16.561-44.072,17.383-49.889c.89-5.817,1.232-8.9-1.506-14.714s-17.793-58.512-17.793-58.512-1.506-6.433-12.592-9.786-19.367-8.281-21.352-8.144-8.144,11.7-10.881,15.193C827.428,302.293,827.7,302.909,826.2,305.167Z" transform="translate(-749.813 -220.841)" fill="url(#linear-gradient-8)"/>
      <path id="Path_62" data-name="Path 62" d="M855.558,204.359s-18.683,6.775-22.447,9.649a9.327,9.327,0,0,0-3.49,4.106s-1.985-.89-1.848,1.985-2.19-4.448-2.874-6.775a15.544,15.544,0,0,1,4.448-13.687c5.064-4.79,10.608-8.418,15.33-8.144a17.574,17.574,0,0,1,12.25,5.2c3.7,3.559,4.585,3.353,5.338,3.7s4.585,4.448,5.064,8.9-.89,11.018-.89,11.018a1.447,1.447,0,0,0-1.848-.274c-.958.684-1.232-4.175-4.448-10.265C857.816,205.249,855.558,204.359,855.558,204.359Z" transform="translate(-773.016 -191.479)" fill="url(#linear-gradient-9)"/>
      <path id="Path_63" data-name="Path 63" d="M835.495,531.9c-2.121,6.159-10.4,18.272-15.809,25.595-5.406,7.254-22.1,22.584-21.01,41.266s12.318,66.724,12.318,71.036-4.174,24.705-7.391,31-4.722,17.519-3.08,17.519a46.205,46.205,0,0,0,9.033-1.232,76.368,76.368,0,0,0,8.007-2.121c1.095-.479,1.369-4.106,1.369-4.106a13.681,13.681,0,0,0-.479-4.448,44.031,44.031,0,0,1-1.711-7.049c-.616-17.519-2.19-58.17-1.848-61.044.616-5.338-3.7-32.1.274-45.3C819.07,579.873,835.495,531.9,835.495,531.9Z" transform="translate(-764.792 -298.932)" opacity="0.07"/>
      <path id="Path_64" data-name="Path 64" d="M792.674,483.2,789.8,505.168s2.874,4.585,3.7.753c.89-3.832,6.775-11.018,3.08-16.151S792.674,483.2,792.674,483.2Z" transform="translate(-762.006 -283.56)" opacity="0.07"/>
      <path id="Path_65" data-name="Path 65" d="M906.72,492.1l-.958,10.471L904.53,512.7s-4.174,3.08-4.106-.89c.137-3.969-7.049-9.855-1.574-13.824S906.72,492.1,906.72,492.1Z" transform="translate(-795.777 -286.369)" opacity="0.07"/>
      <path id="Path_66" data-name="Path 66" d="M834.784,277.914c.753-.137-3.559.958.274-.274,6.57-2.122,3.832-14.44,3.832-14.44s.616,4.585,6.775,6.433,7.8.479-1.505,4.79c-9.239,4.311-4.448,5.817-3.832,11.5" transform="translate(-775.783 -214.117)" opacity="0.07"/>
      <path id="Path_67" data-name="Path 67" d="M803.5,359.514l-10.4,62.961s.137,11.223,2.121,12.866c1.985,1.574,8.623,2.737,10.128,3.832s17.519,6.433,13.345-2.6c-.958-1.985-22.584-14.1-12.934-26.827s7.87-30.248,3.353-42.5a54.963,54.963,0,0,1-3.7-22.447Z" transform="translate(-763.048 -239.874)" opacity="0.07"/>
    </g>
  </g>
</svg>
